  0
SECTION
  2
HEADER
  9
$MEASUREMENT
 70
     1
  0
ENDSEC
  0
SECTION
  2
TABLES
  0
TABLE
  2
LTYPE
 70
     1
  0
LTYPE
  2
Continuous
  3
_
 70
     0
 72
    65
 73
     0
 40
0.0
  0
ENDTAB
  0
TABLE
  2
LAYER
 70
     2
  0
LAYER
  2
1
 70
     0
 62
     7
  6
Continuous
  0
LAYER
  2
NOTES
 70
     0
 62
     1
  6
Continuous
  0
ENDTAB
  0
TABLE
  2
STYLE
 70
     1
  0
STYLE
  2
ARIAL
  3
Arial.ttf
 70
     0
 40
0.0
 41
1.0
 50
0.0
 71
     0
 42
1.0
  0
ENDTAB
  0
ENDSEC
  0
SECTION
  2
ENTITIES
  0
POLYLINE
  8
1
 66
     1
 10
0.0
 20
0.0
 70
     1
  0
VERTEX
  8
1
 10
1.70349567532539
 20
-0.193927561119199
 30
0.0
 70
     0
  0
VERTEX
  8
1
 10
1.89720129966736
 20
-0.21597850099206
 30
0.0
 70
     0
  0
VERTEX
  8
1
 10
1.9500719293952
 20
-0.213664297945797
 30
0.0
 70
     0
  0
VERTEX
  8
1
 10
2.00126206576824
 20
-0.204720520228147
 30
0.0
 70
     0
  0
VERTEX
  8
1
 10
2.05501495450735
 20
-0.19048346048221
 30
0.0
 70
     0
  0
VERTEX
  8
1
 10
2.10366977900267
 20
-0.173923953715712
 30
0.0
 70
     0
  0
VERTEX
  8
1
 10
2.15781648606062
 20
-0.151726893242449
 30
0.0
 70
     0
  0
VERTEX
  8
1
 10
2.20819779038429
 20
-0.127665097825229
 30
0.0
 70
     0
  0
VERTEX
  8
1
 10
2.28441611230373
 20
-0.085070765390992
 30
0.0
 70
     0
  0
VERTEX
  8
1
 10
2.28441611230373
 20
0.085070599801838
 30
0.0
 70
     0
  0
VERTEX
  8
1
 10
2.2081974118948
 20
0.127664955891669
 30
0.0
 70
     0
  0
VERTEX
  8
1
 10
2.15781629681587
 20
0.151726692169905
 30
0.0
 70
     0
  0
VERTEX
  8
1
 10
2.10366958975792
 20
0.173923752643168
 30
0.0
 70
     0
  0
VERTEX
  8
1
 10
2.0550147652626
 20
0.190483259409666
 30
0.0
 70
     0
  0
VERTEX
  8
1
 10
2.00126187652349
 20
0.2047203309834
 30
0.0
 70
     0
  0
VERTEX
  8
1
 10
1.9500719293952
 20
0.213664156012237
 30
0.0
 70
     0
  0
VERTEX
  8
1
 10
1.89720111042261
 20
0.215978359058499
 30
0.0
 70
     0
  0
VERTEX
  8
1
 10
1.70349681079388
 20
0.193926993384957
 30
0.0
 42
-0.000043633231815
 70
     0
  0
VERTEX
  8
1
 10
1.64803844839334
 20
0.472734750434756
 30
0.0
 70
     0
  0
VERTEX
  8
1
 10
1.8354365453124
 20
0.526489247754216
 30
0.0
 70
     0
  0
VERTEX
  8
1
 10
1.88339703083038
 20
0.548860011249781
 30
0.0
 70
     0
  0
VERTEX
  8
1
 10
1.92726793736219
 20
0.576712627336383
 30
0.0
 70
     0
  0
VERTEX
  8
1
 10
1.97148099839687
 20
0.610436277836561
 30
0.0
 70
     0
  0
VERTEX
  8
1
 10
2.01009506434202
 20
0.644354708492756
 30
0.0
 70
     0
  0
VERTEX
  8
1
 10
2.05162558108568
 20
0.685583095997572
 30
0.0
 70
     0
  0
VERTEX
  8
1
 10
2.08896375894546
 20
0.727093410864472
 30
0.0
 70
     0
  0
VERTEX
  8
1
 10
2.14308018684387
 20
0.795612925291061
 30
0.0
 70
     0
  0
VERTEX
  8
1
 10
2.07796996384859
 20
0.952803018689156
 30
0.0
 70
     0
  0
VERTEX
  8
1
 10
1.9912527218461
 20
0.962987414002419
 30
0.0
 70
     0
  0
VERTEX
  8
1
 10
1.93549875915051
 20
0.965937644988298
 30
0.0
 70
     0
  0
VERTEX
  8
1
 10
1.87697936296463
 20
0.965723893046379
 30
0.0
 70
     0
  0
VERTEX
  8
1
 10
1.82569119781256
 20
0.962403499335051
 30
0.0
 70
     0
  0
VERTEX
  8
1
 10
1.77058161348104
 20
0.954986524581909
 30
0.0
 70
     0
  0
VERTEX
  8
1
 10
1.71986553519964
 20
0.943660037219524
 30
0.0
 70
     0
  0
VERTEX
  8
1
 10
1.67013352960348
 20
0.925565306097269
 30
0.0
 70
     0
  0
VERTEX
  8
1
 10
1.49961303621531
 20
0.831065090000629
 30
0.0
 42
-0.000043633233317
 70
     0
  0
VERTEX
  8
1
 10
1.34168110340834
 20
1.06742685884237
 30
0.0
 70
     0
  0
VERTEX
  8
1
 10
1.49424350038171
 20
1.18880380317569
 30
0.0
 70
     0
  0
VERTEX
  8
1
 10
1.52999230623245
 20
1.2278252184391
 30
0.0
 70
     0
  0
VERTEX
  8
1
 10
1.55986496806145
 20
1.27034643143415
 30
0.0
 70
     0
  0
VERTEX
  8
1
 10
1.5878069549799
 20
1.31842245087028
 30
0.0
 70
     0
  0
VERTEX
  8
1
 10
1.61050175279379
 20
1.36453600227833
 30
0.0
 70
     0
  0
VERTEX
  8
1
 10
1.63309341222048
 20
1.41851920187473
 30
0.0
 70
     0
  0
VERTEX
  8
1
 10
1.65170411914587
 20
1.47115838527679
 30
0.0
 70
     0
  0
VERTEX
  8
1
 10
1.67547988295555
 20
1.55517160370946
 30
0.0
 70
     0
  0
VERTEX
  8
1
 10
1.55517179295421
 20
1.6754796937108
 30
0.0
 70
     0
  0
VERTEX
  8
1
 10
1.47115838527679
 20
1.65170374065638
 30
0.0
 70
     0
  0
VERTEX
  8
1
 10
1.41851929649711
 20
1.63309303373098
 30
0.0
 70
     0
  0
VERTEX
  8
1
 10
1.36453619152307
 20
1.61050118505955
 30
0.0
 70
     0
  0
VERTEX
  8
1
 10
1.31842264011502
 20
1.58780638724565
 30
0.0
 70
     0
  0
VERTEX
  8
1
 10
1.27034652605653
 20
1.55986458957195
 30
0.0
 70
     0
  0
VERTEX
  8
1
 10
1.22782540768385
 20
1.52999211698771
 30
0.0
 70
     0
  0
VERTEX
  8
1
 10
1.18880380317569
 20
1.49424312189221
 30
0.0
 70
     0
  0
VERTEX
  8
1
 10
1.06742685884237
 20
1.34168091416359
 30
0.0
 42
-0.000043633243782
 70
     0
  0
VERTEX
  8
1
 10
0.831064995378256
 20
1.49961275234818
 30
0.0
 70
     0
  0
VERTEX
  8
1
 10
0.925565400719643
 20
1.67013352960348
 30
0.0
 70
     0
  0
VERTEX
  8
1
 10
0.943660037219524
 20
1.71986515671015
 30
0.0
 70
     0
  0
VERTEX
  8
1
 10
0.954986713826656
 20
1.7705814242363
 30
0.0
 70
     0
  0
VERTEX
  8
1
 10
0.962403783202171
 20
1.82569081932306
 30
0.0
 70
     0
  0
VERTEX
  8
1
 10
0.965724082291126
 20
1.87697898447514
 30
0.0
 70
     0
  0
VERTEX
  8
1
 10
0.965937739610672
 20
1.93549838066101
 30
0.0
 70
     0
  0
VERTEX
  8
1
 10
0.962987603247166
 20
1.9912527218461
 30
0.0
 70
     0
  0
VERTEX
  8
1
 10
0.952803018689156
 20
2.0779695853591
 30
0.0
 70
     0
  0
VERTEX
  8
1
 10
0.795612925291061
 20
2.14307980835438
 30
0.0
 70
     0
  0
VERTEX
  8
1
 10
0.727093268930912
 20
2.08896300196648
 30
0.0
 70
     0
  0
VERTEX
  8
1
 10
0.685583190619945
 20
2.05162482410669
 30
0.0
 70
     0
  0
VERTEX
  8
1
 10
0.644354708492756
 20
2.01009430736303
 30
0.0
 70
     0
  0
VERTEX
  8
1
 10
0.610436325147748
 20
1.97148024141788
 30
0.0
 70
     0
  0
VERTEX
  8
1
 10
0.57671267464757
 20
1.92726736962795
 30
0.0
 70
     0
  0
VERTEX
  8
1
 10
0.548860105872154
 20
1.88339665234089
 30
0.0
 70
     0
  0
VERTEX
  8
1
 10
0.526489295065403
 20
1.83543616682291
 30
0.0
 70
     0
  0
VERTEX
  8
1
 10
0.472734655812383
 20
1.64803806990385
 30
0.0
 42
-0.000043633240145
 70
     0
  0
VERTEX
  8
1
 10
0.193926898762584
 20
1.70349624305964
 30
0.0
 70
     0
  0
VERTEX
  8
1
 10
0.215978382714093
 20
1.89720054268837
 30
0.0
 70
     0
  0
VERTEX
  8
1
 10
0.21366417966783
 20
1.95007098317146
 30
0.0
 70
     0
  0
VERTEX
  8
1
 10
0.204720401950181
 20
2.00126111954451
 30
0.0
 70
     0
  0
VERTEX
  8
1
 10
0.190483365859836
 20
2.05501400828362
 30
0.0
 70
     0
  0
VERTEX
  8
1
 10
0.173923859093338
 20
2.10366883277893
 30
0.0
 70
     0
  0
VERTEX
  8
1
 10
0.151726798620075
 20
2.15781553983688
 30
0.0
 70
     0
  0
VERTEX
  8
1
 10
0.127665003202856
 20
2.20819684416056
 30
0.0
 70
     0
  0
VERTEX
  8
1
 10
0.085070682596415
 20
2.28441516608
 30
0.0
 70
     0
  0
VERTEX
  8
1
 10
-0.08507066485472
 20
2.28441535532475
 30
0.0
 70
     0
  0
VERTEX
  8
1
 10
-0.127665015030652
 20
2.20819665491581
 30
0.0
 70
     0
  0
VERTEX
  8
1
 10
-0.151726751308888
 20
2.15781553983688
 30
0.0
 70
     0
  0
VERTEX
  8
1
 10
-0.173923811782151
 20
2.10366883277893
 30
0.0
 70
     0
  0
VERTEX
  8
1
 10
-0.19048331854865
 20
2.05501400828362
 30
0.0
 70
     0
  0
VERTEX
  8
1
 10
-0.204720378294587
 20
2.00126111954451
 30
0.0
 70
     0
  0
VERTEX
  8
1
 10
-0.213664203323424
 20
1.95007117241621
 30
0.0
 70
     0
  0
VERTEX
  8
1
 10
-0.215978406369686
 20
1.89720054268837
 30
0.0
 70
     0
  0
VERTEX
  8
1
 10
-0.193927040696144
 20
1.70349624305964
 30
0.0
 42
-0.000043633244403
 70
     0
  0
VERTEX
  8
1
 10
-0.472734797745943
 20
1.6480378806591
 30
0.0
 70
     0
  0
VERTEX
  8
1
 10
-0.526489389687777
 20
1.83543597757816
 30
0.0
 70
     0
  0
VERTEX
  8
1
 10
-0.548860153183341
 20
1.88339646309614
 30
0.0
 70
     0
  0
VERTEX
  8
1
 10
-0.576712721958756
 20
1.92726736962795
 30
0.0
 70
     0
  0
VERTEX
  8
1
 10
-0.610436372458935
 20
1.97148024141788
 30
0.0
 70
     0
  0
VERTEX
  8
1
 10
-0.644354850426316
 20
2.01009449660778
 30
0.0
 70
     0
  0
VERTEX
  8
1
 10
-0.685583237931132
 20
2.05162501335144
 30
0.0
 70
     0
  0
VERTEX
  8
1
 10
-0.72709360010922
 20
2.08896319121122
 30
0.0
 70
     0
  0
VERTEX
  8
1
 10
-0.795613114535809
 20
2.14307942986488
 30
0.0
 70
     0
  0
VERTEX
  8
1
 10
-0.952803207933903
 20
2.0779692068696
 30
0.0
 70
     0
  0
VERTEX
  8
1
 10
-0.962987603247166
 20
1.99125215411186
 30
0.0
 70
     0
  0
VERTEX
  8
1
 10
-0.965937739610672
 20
1.93549819141626
 30
0.0
 70
     0
  0
VERTEX
  8
1
 10
-0.965724082291126
 20
1.87697879523039
 30
0.0
 70
     0
  0
VERTEX
  8
1
 10
-0.962403688579798
 20
1.82569044083357
 30
0.0
 70
     0
  0
VERTEX
  8
1
 10
-0.954986619204283
 20
1.7705810457468
 30
0.0
 70
     0
  0
VERTEX
  8
1
 10
-0.943660131841898
 20
1.7198649674654
 30
0.0
 70
     0
  0
VERTEX
  8
1
 10
-0.925565400719643
 20
1.67013315111399
 30
0.0
 70
     0
  0
VERTEX
  8
1
 10
-0.831065184623003
 20
1.49961265772581
 30
0.0
 42
-0.000043633242659
 70
     0
  0
VERTEX
  8
1
 10
-1.06742695346475
 20
1.34168072491884
 30
0.0
 70
     0
  0
VERTEX
  8
1
 10
-1.18880408704281
 20
1.49424312189221
 30
0.0
 70
     0
  0
VERTEX
  8
1
 10
-1.22782550230622
 20
1.52999192774296
 30
0.0
 70
     0
  0
VERTEX
  8
1
 10
-1.27034671530128
 20
1.55986458957195
 30
0.0
 70
     0
  0
VERTEX
  8
1
 10
-1.31842282935977
 20
1.58780638724565
 30
0.0
 70
     0
  0
VERTEX
  8
1
 10
-1.36453628614545
 20
1.61050118505955
 30
0.0
 70
     0
  0
VERTEX
  8
1
 10
-1.41851958036423
 20
1.63309303373098
 30
0.0
 70
     0
  0
VERTEX
  8
1
 10
-1.47115876376629
 20
1.65170374065638
 30
0.0
 70
     0
  0
VERTEX
  8
1
 10
-1.55517188757658
 20
1.67547931522131
 30
0.0
 70
     0
  0
VERTEX
  8
1
 10
-1.6754800722003
 20
1.55517141446471
 30
0.0
 70
     0
  0
VERTEX
  8
1
 10
-1.65170411914587
 20
1.4711580067873
 30
0.0
 70
     0
  0
VERTEX
  8
1
 10
-1.63309341222048
 20
1.41851891800761
 30
0.0
 70
     0
  0
VERTEX
  8
1
 10
-1.61050175279379
 20
1.36453581303358
 30
0.0
 70
     0
  0
VERTEX
  8
1
 10
-1.58780676573515
 20
1.31842226162553
 30
0.0
 70
     0
  0
VERTEX
  8
1
 10
-1.55986496806145
 20
1.27034624218941
 30
0.0
 70
     0
  0
VERTEX
  8
1
 10
-1.52999240085483
 20
1.2278252184391
 30
0.0
 70
     0
  0
VERTEX
  8
1
 10
-1.49424340575933
 20
1.18880351930857
 30
0.0
 70
     0
  0
VERTEX
  8
1
 10
-1.34168119803071
 20
1.06742666959763
 30
0.0
 42
-0.00004363322812
 70
     0
  0
VERTEX
  8
1
 10
-1.49961303621531
 20
0.831064900755882
 30
0.0
 70
     0
  0
VERTEX
  8
1
 10
-1.67013409733772
 20
0.925565211474895
 30
0.0
 70
     0
  0
VERTEX
  8
1
 10
-1.71986591368914
 20
0.943659847974777
 30
0.0
 70
     0
  0
VERTEX
  8
1
 10
-1.77058218121529
 20
0.954986524581909
 30
0.0
 70
     0
  0
VERTEX
  8
1
 10
-1.82569157630205
 20
0.962403499335051
 30
0.0
 70
     0
  0
VERTEX
  8
1
 10
-1.87697974145412
 20
0.965723987668753
 30
0.0
 70
     0
  0
VERTEX
  8
1
 10
-1.93549913764
 20
0.965937550365925
 30
0.0
 70
     0
  0
VERTEX
  8
1
 10
-1.99125347882509
 20
0.962987414002419
 30
0.0
 70
     0
  0
VERTEX
  8
1
 10
-2.07797034233809
 20
0.952802924066782
 30
0.0
 70
     0
  0
VERTEX
  8
1
 10
-2.14308056533337
 20
0.795612925291061
 30
0.0
 70
     0
  0
VERTEX
  8
1
 10
-2.08896375894546
 20
0.727093221619725
 30
0.0
 70
     0
  0
VERTEX
  8
1
 10
-2.05162558108568
 20
0.685583143308759
 30
0.0
 70
     0
  0
VERTEX
  8
1
 10
-2.01009506434202
 20
0.644354661181569
 30
0.0
 70
     0
  0
VERTEX
  8
1
 10
-1.97148099839687
 20
0.610436325147748
 30
0.0
 70
     0
  0
VERTEX
  8
1
 10
-1.92726812660694
 20
0.576712627336383
 30
0.0
 70
     0
  0
VERTEX
  8
1
 10
-1.88339740931988
 20
0.548860058560967
 30
0.0
 70
     0
  0
VERTEX
  8
1
 10
-1.83543673455715
 20
0.526489247754216
 30
0.0
 70
     0
  0
VERTEX
  8
1
 10
-1.64803863763809
 20
0.472734655812383
 30
0.0
 42
-0.000043633212806
 70
     0
  0
VERTEX
  8
1
 10
-1.70349681079388
 20
0.193926993384957
 30
0.0
 70
     0
  0
VERTEX
  8
1
 10
-1.89720129966736
 20
0.215978406369686
 30
0.0
 70
     0
  0
VERTEX
  8
1
 10
-1.9500719293952
 20
0.213664203323424
 30
0.0
 70
     0
  0
VERTEX
  8
1
 10
-2.00126206576824
 20
0.204720425605774
 30
0.0
 70
     0
  0
VERTEX
  8
1
 10
-2.05501495450735
 20
0.190483377687633
 30
0.0
 70
     0
  0
VERTEX
  8
1
 10
-2.10366977900267
 20
0.173923870921135
 30
0.0
 70
     0
  0
VERTEX
  8
1
 10
-2.15781648606062
 20
0.151726822275668
 30
0.0
 70
     0
  0
VERTEX
  8
1
 10
-2.20819779038429
 20
0.127665038686246
 30
0.0
 70
     0
  0
VERTEX
  8
1
 10
-2.28441611230373
 20
0.085070723993704
 30
0.0
 70
     0
  0
VERTEX
  8
1
 10
-2.28441611230373
 20
-0.085070564318448
 30
0.0
 70
     0
  0
VERTEX
  8
1
 10
-2.2081974118948
 20
-0.127664908580482
 30
0.0
 70
     0
  0
VERTEX
  8
1
 10
-2.15781629681587
 20
-0.151726633030921
 30
0.0
 70
     0
  0
VERTEX
  8
1
 10
-2.10366958975792
 20
-0.173923681676388
 30
0.0
 70
     0
  0
VERTEX
  8
1
 10
-2.0550147652626
 20
-0.190483188442886
 30
0.0
 70
     0
  0
VERTEX
  8
1
 10
-2.00126187652349
 20
-0.20472026001662
 30
0.0
 70
     0
  0
VERTEX
  8
1
 10
-1.9500719293952
 20
-0.213664085045457
 30
0.0
 70
     0
  0
VERTEX
  8
1
 10
-1.89720111042261
 20
-0.215978288091719
 30
0.0
 70
     0
  0
VERTEX
  8
1
 10
-1.70349681079388
 20
-0.193926922418177
 30
0.0
 42
-0.000043633214642
 70
     0
  0
VERTEX
  8
1
 10
-1.64803844839334
 20
-0.472734561190009
 30
0.0
 70
     0
  0
VERTEX
  8
1
 10
-1.83543711304665
 20
-0.526489153131843
 30
0.0
 70
     0
  0
VERTEX
  8
1
 10
-1.88339759856462
 20
-0.548859916627407
 30
0.0
 70
     0
  0
VERTEX
  8
1
 10
-1.92726831585169
 20
-0.576712485402822
 30
0.0
 70
     0
  0
VERTEX
  8
1
 10
-1.97148137688637
 20
-0.610436135903001
 30
0.0
 70
     0
  0
VERTEX
  8
1
 10
-2.01009563207626
 20
-0.644354519248009
 30
0.0
 70
     0
  0
VERTEX
  8
1
 10
-2.05162614881992
 20
-0.685583001375198
 30
0.0
 70
     0
  0
VERTEX
  8
1
 10
-2.08896432667971
 20
-0.727093221619725
 30
0.0
 70
     0
  0
VERTEX
  8
1
 10
-2.14308075457811
 20
-0.795612736046314
 30
0.0
 70
     0
  0
VERTEX
  8
1
 10
-2.07797053158283
 20
-0.952802829444408
 30
0.0
 70
     0
  0
VERTEX
  8
1
 10
-1.99125328958035
 20
-0.962987319380045
 30
0.0
 70
     0
  0
VERTEX
  8
1
 10
-1.93549932688475
 20
-0.965937361121178
 30
0.0
 70
     0
  0
VERTEX
  8
1
 10
-1.87697993069887
 20
-0.965723703801632
 30
0.0
 70
     0
  0
VERTEX
  8
1
 10
-1.82569157630205
 20
-0.962403310090303
 30
0.0
 70
     0
  0
VERTEX
  8
1
 10
-1.77058199197054
 20
-0.954986335337162
 30
0.0
 70
     0
  0
VERTEX
  8
1
 10
-1.71986610293388
 20
-0.943659753352404
 30
0.0
 70
     0
  0
VERTEX
  8
1
 10
-1.67013409733772
 20
-0.925565116852522
 30
0.0
 70
     0
  0
VERTEX
  8
1
 10
-1.49961332008243
 20
-0.831064900755882
 30
0.0
 42
-0.00004363321621
 70
     0
  0
VERTEX
  8
1
 10
-1.34168138727546
 20
-1.06742657497525
 30
0.0
 70
     0
  0
VERTEX
  8
1
 10
-1.49424397349358
 20
-1.18880361393094
 30
0.0
 70
     0
  0
VERTEX
  8
1
 10
-1.52999277934432
 20
-1.2278252184391
 30
0.0
 70
     0
  0
VERTEX
  8
1
 10
-1.55986553579569
 20
-1.27034624218941
 30
0.0
 70
     0
  0
VERTEX
  8
1
 10
-1.58780752271414
 20
-1.3184223562479
 30
0.0
 70
     0
  0
VERTEX
  8
1
 10
-1.61050232052803
 20
-1.36453590765595
 30
0.0
 70
     0
  0
VERTEX
  8
1
 10
-1.63309416919947
 20
-1.41851901262999
 30
0.0
 70
     0
  0
VERTEX
  8
1
 10
-1.65170487612486
 20
-1.47115819603205
 30
0.0
 70
     0
  0
VERTEX
  8
1
 10
-1.67548082917929
 20
-1.55517150908709
 30
0.0
 70
     0
  0
VERTEX
  8
1
 10
-1.55517264455557
 20
-1.6754796937108
 30
0.0
 70
     0
  0
VERTEX
  8
1
 10
-1.47115895301104
 20
-1.65170355141163
 30
0.0
 70
     0
  0
VERTEX
  8
1
 10
-1.41851986423135
 20
-1.63309303373098
 30
0.0
 70
     0
  0
VERTEX
  8
1
 10
-1.36453675925732
 20
-1.61050118505955
 30
0.0
 70
     0
  0
VERTEX
  8
1
 10
-1.31842320784926
 20
-1.58780638724565
 30
0.0
 70
     0
  0
VERTEX
  8
1
 10
-1.2703469991684
 20
-1.55986440032721
 30
0.0
 70
     0
  0
VERTEX
  8
1
 10
-1.22782607004046
 20
-1.52999192774296
 30
0.0
 70
     0
  0
VERTEX
  8
1
 10
-1.18880437090993
 20
-1.49424302726984
 30
0.0
 70
     0
  0
VERTEX
  8
1
 10
-1.06742733195424
 20
-1.34168081954122
 30
0.0
 42
-0.000043633230665
 70
     0
  0
VERTEX
  8
1
 10
-0.831065468490124
 20
-1.49961256310344
 30
0.0
 70
     0
  0
VERTEX
  8
1
 10
-0.925565968453884
 20
-1.67013352960348
 30
0.0
 70
     0
  0
VERTEX
  8
1
 10
-0.943660699576139
 20
-1.71986534595489
 30
0.0
 70
     0
  0
VERTEX
  8
1
 10
-0.954987376183271
 20
-1.77058161348104
 30
0.0
 70
     0
  0
VERTEX
  8
1
 10
-0.962404350936413
 20
-1.82569081932306
 30
0.0
 70
     0
  0
VERTEX
  8
1
 10
-0.965724744647741
 20
-1.87697917371988
 30
0.0
 70
     0
  0
VERTEX
  8
1
 10
-0.965938401967287
 20
-1.93549856990576
 30
0.0
 70
     0
  0
VERTEX
  8
1
 10
-0.962988265603781
 20
-1.99125291109085
 30
0.0
 70
     0
  0
VERTEX
  8
1
 10
-0.952803775668144
 20
-2.0779695853591
 30
0.0
 70
     0
  0
VERTEX
  8
1
 10
-0.79561368227005
 20
-2.14307980835438
 30
0.0
 70
     0
  0
VERTEX
  8
1
 10
-0.727094025909901
 20
-2.08896319121122
 30
0.0
 70
     0
  0
VERTEX
  8
1
 10
-0.685583805665374
 20
-2.05162501335144
 30
0.0
 70
     0
  0
VERTEX
  8
1
 10
-0.644355323538184
 20
-2.01009449660778
 30
0.0
 70
     0
  0
VERTEX
  8
1
 10
-0.610436987504363
 20
-1.97148024141788
 30
0.0
 70
     0
  0
VERTEX
  8
1
 10
-0.576713242381811
 20
-1.9272675588727
 30
0.0
 70
     0
  0
VERTEX
  8
1
 10
-0.548860720917583
 20
-1.88339684158564
 30
0.0
 70
     0
  0
VERTEX
  8
1
 10
-0.526489862799644
 20
-1.83543616682291
 30
0.0
 70
     0
  0
VERTEX
  8
1
 10
-0.472735176235437
 20
-1.64803806990385
 30
0.0
 42
-0.000043633230493
 70
     0
  0
VERTEX
  8
1
 10
-0.193927466496825
 20
-1.70349624305964
 30
0.0
 70
     0
  0
VERTEX
  8
1
 10
-0.215978997759521
 20
-1.89720092117786
 30
0.0
 70
     0
  0
VERTEX
  8
1
 10
-0.213664818368852
 20
-1.95007136166096
 30
0.0
 70
     0
  0
VERTEX
  8
1
 10
-0.204721040651202
 20
-2.001261498034
 30
0.0
 70
     0
  0
VERTEX
  8
1
 10
-0.190483992733061
 20
-2.05501438677311
 30
0.0
 70
     0
  0
VERTEX
  8
1
 10
-0.17392449779436
 20
-2.10366921126843
 30
0.0
 70
     0
  0
VERTEX
  8
1
 10
-0.151727449148893
 20
-2.15781591832638
 30
0.0
 70
     0
  0
VERTEX
  8
1
 10
-0.127665689215064
 20
-2.20819722265005
 30
0.0
 70
     0
  0
VERTEX
  8
1
 10
-0.085071368608624
 20
-2.28441554456949
 30
0.0
 70
     0
  0
VERTEX
  8
1
 10
0.085069967014715
 20
-2.28441573381424
 30
0.0
 70
     0
  0
VERTEX
  8
1
 10
0.127664329018444
 20
-2.2081970334053
 30
0.0
 70
     0
  0
VERTEX
  8
1
 10
0.151726077124476
 20
-2.15781591832638
 30
0.0
 70
     0
  0
VERTEX
  8
1
 10
0.173923149425536
 20
-2.10366921126843
 30
0.0
 70
     0
  0
VERTEX
  8
1
 10
0.190482668019831
 20
-2.05501438677311
 30
0.0
 70
     0
  0
VERTEX
  8
1
 10
0.204719739593565
 20
-2.001261498034
 30
0.0
 70
     0
  0
VERTEX
  8
1
 10
0.213663564622402
 20
-1.9500715509057
 30
0.0
 70
     0
  0
VERTEX
  8
1
 10
0.215977791324258
 20
-1.89720092117786
 30
0.0
 70
     0
  0
VERTEX
  8
1
 10
0.193926496617496
 20
-1.70349662154913
 30
0.0
 42
-0.00004363323142
 70
     0
  0
VERTEX
  8
1
 10
0.472734182700515
 20
-1.6480382591486
 30
0.0
 70
     0
  0
VERTEX
  8
1
 10
0.526488632708788
 20
-1.83543673455715
 30
0.0
 70
     0
  0
VERTEX
  8
1
 10
0.548859348893166
 20
-1.88339703083038
 30
0.0
 70
     0
  0
VERTEX
  8
1
 10
0.576711917668581
 20
-1.92726793736219
 30
0.0
 70
     0
  0
VERTEX
  8
1
 10
0.610435568168759
 20
-1.97148099839687
 30
0.0
 70
     0
  0
VERTEX
  8
1
 10
0.644353951513767
 20
-2.01009506434202
 30
0.0
 70
     0
  0
VERTEX
  8
1
 10
0.685582339018583
 20
-2.05162558108568
 30
0.0
 70
     0
  0
VERTEX
  8
1
 10
0.727092606574297
 20
-2.08896375894546
 30
0.0
 70
     0
  0
VERTEX
  8
1
 10
0.795612073689699
 20
-2.14308018684387
 30
0.0
 70
     0
  0
VERTEX
  8
1
 10
0.952802167087793
 20
-2.07796996384859
 30
0.0
 70
     0
  0
VERTEX
  8
1
 10
0.96298665702343
 20
-1.99125291109085
 30
0.0
 70
     0
  0
VERTEX
  8
1
 10
0.965936698764563
 20
-1.93549875915051
 30
0.0
 70
     0
  0
VERTEX
  8
1
 10
0.96572313606739
 20
-1.87697936296463
 30
0.0
 70
     0
  0
VERTEX
  8
1
 10
0.962402742356062
 20
-1.82569119781256
 30
0.0
 70
     0
  0
VERTEX
  8
1
 10
0.954985767602921
 20
-1.77058161348104
 30
0.0
 70
     0
  0
VERTEX
  8
1
 10
0.943659280240536
 20
-1.71986553519964
 30
0.0
 70
     0
  0
VERTEX
  8
1
 10
0.92556454911828
 20
-1.67013390809298
 30
0.0
 70
     0
  0
VERTEX
  8
1
 10
0.831064427644014
 20
-1.49961303621531
 30
0.0
 42
-0.000043633244118
 70
     0
  0
VERTEX
  8
1
 10
1.06742619648576
 20
-1.34168110340834
 30
0.0
 70
     0
  0
VERTEX
  8
1
 10
1.1888030461967
 20
-1.49424368962646
 30
0.0
 70
     0
  0
VERTEX
  8
1
 10
1.22782455608249
 20
-1.52999240085483
 30
0.0
 70
     0
  0
VERTEX
  8
1
 10
1.27034567445517
 20
-1.55986515730619
 30
0.0
 70
     0
  0
VERTEX
  8
1
 10
1.31842178851366
 20
-1.58780714422464
 30
0.0
 70
     0
  0
VERTEX
  8
1
 10
1.36453524529934
 20
-1.61050194203854
 30
0.0
 70
     0
  0
VERTEX
  8
1
 10
1.41851844489574
 20
-1.63309379070997
 30
0.0
 70
     0
  0
VERTEX
  8
1
 10
1.47115762829781
 20
-1.65170449763536
 30
0.0
 70
     0
  0
VERTEX
  8
1
 10
1.55517065748572
 20
-1.6754800722003
 30
0.0
 70
     0
  0
VERTEX
  8
1
 10
1.67547874748707
 20
-1.55517207682133
 30
0.0
 70
     0
  0
VERTEX
  8
1
 10
1.65170279443264
 20
-1.47115857452154
 30
0.0
 70
     0
  0
VERTEX
  8
1
 10
1.633092276752
 20
-1.41851948574185
 30
0.0
 70
     0
  0
VERTEX
  8
1
 10
1.61050042808056
 20
-1.36453638076782
 30
0.0
 70
     0
  0
VERTEX
  8
1
 10
1.58780563026667
 20
-1.31842282935977
 30
0.0
 70
     0
  0
VERTEX
  8
1
 10
1.55986392721534
 20
-1.27034680992365
 30
0.0
 70
     0
  0
VERTEX
  8
1
 10
1.52999145463109
 20
-1.22782569155097
 30
0.0
 70
     0
  0
VERTEX
  8
1
 10
1.4942424595356
 20
-1.18880399242044
 30
0.0
 70
     0
  0
VERTEX
  8
1
 10
1.34168025180697
 20
-1.06742714270949
 30
0.0
 42
-0.000043633246232
 70
     0
  0
VERTEX
  8
1
 10
1.49961218461394
 20
-0.83106537386775
 30
0.0
 70
     0
  0
VERTEX
  8
1
 10
1.67013277262449
 20
-0.92556587383151
 30
0.0
 70
     0
  0
VERTEX
  8
1
 10
1.71986458897591
 20
-0.943660604953766
 30
0.0
 70
     0
  0
VERTEX
  8
1
 10
1.77058047801256
 20
-0.954987186938524
 30
0.0
 70
     0
  0
VERTEX
  8
1
 10
1.82569006234407
 20
-0.962404256314039
 30
0.0
 70
     0
  0
VERTEX
  8
1
 10
1.87697822749615
 20
-0.965724744647741
 30
0.0
 70
     0
  0
VERTEX
  8
1
 10
1.93549762368202
 20
-0.965938307344913
 30
0.0
 70
     0
  0
VERTEX
  8
1
 10
1.99125196486712
 20
-0.962988265603781
 30
0.0
 70
     0
  0
VERTEX
  8
1
 10
2.07796863913536
 20
-0.952803681045771
 30
0.0
 70
     0
  0
VERTEX
  8
1
 10
2.14307886213064
 20
-0.79561368227005
 30
0.0
 70
     0
  0
VERTEX
  8
1
 10
2.08896224498749
 20
-0.727093931287527
 30
0.0
 70
     0
  0
VERTEX
  8
1
 10
2.0516240671277
 20
-0.685583852976561
 30
0.0
 70
     0
  0
VERTEX
  8
1
 10
2.01009373962879
 20
-0.644355370849371
 30
0.0
 70
     0
  0
VERTEX
  8
1
 10
1.97147967368364
 20
-0.610436940193176
 30
0.0
 70
     0
  0
VERTEX
  8
1
 10
1.92726661264896
 20
-0.576713242381811
 30
0.0
 70
     0
  0
VERTEX
  8
1
 10
1.88339608460665
 20
-0.548860720917583
 30
0.0
 70
     0
  0
VERTEX
  8
1
 10
1.83543540984392
 20
-0.526489862799644
 30
0.0
 70
     0
  0
VERTEX
  8
1
 10
1.64803731292486
 20
-0.472735223546624
 30
0.0
 42
-0.000043633241497
 70
     0
  0
SEQEND
  0
TEXT
  8
NOTES
 10
-2.28600025177002
 20
-2.51460003852844
 30
0.0
 11
-2.28600025177002
 21
-2.51460003852844
 31
0.0
 40
0.091439962387085
  1
Diametral Pitch: 100
 41
1.0
  7
ARIAL
  0
TEXT
  8
NOTES
 10
-2.28600025177002
 20
-2.69748020172119
 30
0.0
 11
-2.28600025177002
 21
-2.69748020172119
 31
0.0
 40
0.091440200805664
  1
Number Of Teeth: 16
 41
1.0
  7
ARIAL
  0
TEXT
  8
NOTES
 10
-2.28600025177002
 20
-2.88036012649536
 30
0.0
 11
-2.28600025177002
 21
-2.88036012649536
 31
0.0
 40
0.091439962387085
  1
Pressure Angle: 20
 41
1.0
  7
ARIAL
  0
ENDSEC
  0
EOF
